<svg xmlns="http://www.w3.org/2000/svg" xmlns:xlink="http://www.w3.org/1999/xlink" width="1200" height="1200" viewBox="0 0 1200 1200"><rect width="100%" height="100%" fill="#1A1A1A"></rect><g transform="translate(600 600) scale(0.69 0.69) rotate(-60) translate(-600 -600)" style="fill:#FFFFFF"><svg fill="#FFFFFF" xmlns="http://www.w3.org/2000/svg" data-name="Layer 1" viewBox="0 0 32 32" x="0px" y="0px"><title>gadget phone smartphone backup reset rotation ui</title><path d="M17,30.05A14,14,0,0,1,3,16a1,1,0,0,1,2,0A12,12,0,1,0,6.69,9.84,1,1,0,1,1,5,8.81,14,14,0,1,1,17,30.05Z"></path><path d="M6,17a1,1,0,0,1-.71-.29L4,15.47,2.71,16.74a1,1,0,0,1-1.41-1.41l2-2a1,1,0,0,1,1.41,0l2,2A1,1,0,0,1,6,17Z"></path></svg></g></svg>